# xmcd
#
# Track frame offsets:
#	183
#	10373
#	25095
#	48660
#	64670
#	78618
#	89110
#	106153
#	125795
#	143060
#	153073
#	169243
#	186633
#
# Disc length: 2661 seconds
#
# Revision: 1
# Processed by: cddbd v1.4PL0 Copyright (c) Steve Scherf et al.
# Submitted via: audiograbber 1.80.04
#
DISCID=b50a630d
DTITLE=Eric Lee - Limited Edition
DYEAR=1993
DGENRE=Blues
TTITLE0=All We Do
TTITLE1=No Money To Pay
TTITLE2=New River Train
TTITLE3=Hitchhiking Baby
TTITLE4=Something
TTITLE5=Rain Forest
TTITLE6=Mama Never Told Me
TTITLE7=Barsan
TTITLE8=Sunshine Baby
TTITLE9=Come And Dance With Me
TTITLE10=Tutti Frutti
TTITLE11=Bubedidu
TTITLE12=Eine Kleine Sehnsucht
EXTD=CD Limited Edition
EXTT0=(E.Lee, U.Krüger)
EXTT1=(E.Lee, U.Krüger)
EXTT2=(E.Lee, U.Krüger)
EXTT3=(E.Lee, U.Krüger)
EXTT4=(E.Lee, U.Krüger)
EXTT5=(E.Lee, U.Krüger)
EXTT6=(E.Lee, U.Krüger)
EXTT7=(Barsan)
EXTT8=(E.Lee, U.Krüger)
EXTT9=(E.Lee, U.Krüger)
EXTT10=(E.Lee, Little Richard)
EXTT11=(E.Lee, U.Krüger)
EXTT12=(Friedrich Hollender)
PLAYORDER=
